<svg width="226" height="302" viewBox="0 0 226 302" fill="none" xmlns="http://www.w3.org/2000/svg">
<path d="M53.4573 301C68.4737 300.637 91.4928 300.115 114.706 299.716C115.418 295.952 116.158 292.165 116.955 288.332C117.267 292.137 117.582 295.902 117.894 299.661C138.183 299.322 158.32 299.088 173.099 299.151C173.308 290.997 173.472 282.776 173.562 274.429L52.4402 275.723C52.7774 284.068 53.1164 292.506 53.4573 301Z" fill="#3172A6" stroke="#3172A6" stroke-width="2" stroke-miterlimit="10" stroke-linejoin="round"/>
<path d="M199.262 276.195C197.071 277.561 194.881 278.926 192.692 280.292C204.518 274.463 213.12 263.302 217.996 251.052C222.872 238.802 224.351 225.466 224.765 212.288C225.599 185.754 222.218 158.84 212.368 134.188C202.518 109.536 181.315 89.5964 159.058 75.1261L57.354 92.0768C21.5541 129.996 -3.26927 172.239 1.61253 224.157C2.55424 234.175 4.3736 244.283 8.92958 253.256C13.4837 262.228 21.0833 270.014 30.6924 272.999" fill="#FCFCFC"/>
<path d="M199.262 276.195C197.071 277.561 194.881 278.926 192.692 280.292C204.518 274.463 213.12 263.302 217.996 251.052C222.872 238.802 224.351 225.466 224.765 212.288C225.599 185.754 222.218 158.84 212.368 134.188C202.518 109.536 181.315 89.5964 159.058 75.1261L57.354 92.0768C21.5541 129.996 -3.26927 172.239 1.61253 224.157C2.55424 234.175 4.3736 244.283 8.92958 253.256C13.4837 262.228 21.0833 270.014 30.6924 272.999" stroke="#FCFCFC" stroke-width="2" stroke-miterlimit="10" stroke-linecap="round" stroke-linejoin="round"/>
<path d="M157.448 46.615C157.137 46.8485 153.212 28.4307 147.65 20.784C142.089 13.1374 133.632 2.6976 124.273 1.35285C118.859 0.574998 113.353 1.23231 107.924 1.89151C104.842 2.26631 101.769 2.81438 98.8945 3.99151C80.5256 11.5101 79.4408 26.1159 75.1861 31.4347C70.9315 36.7535 67.7259 43.3341 68.1949 50.1294L84.1549 88.052H151.317" fill="#442621"/>
<path d="M157.448 46.615C157.137 46.8485 153.212 28.4307 147.65 20.784C142.089 13.1374 133.632 2.6976 124.273 1.35285C118.859 0.574998 113.353 1.23231 107.924 1.89151C104.842 2.26631 101.769 2.81438 98.8945 3.99151C80.5256 11.5101 79.4408 26.1159 75.1861 31.4347C70.9315 36.7535 67.7259 43.3341 68.1949 50.1294L84.1549 88.052H151.317" stroke="#442621" stroke-width="2" stroke-miterlimit="10" stroke-linecap="round" stroke-linejoin="round"/>
<path d="M138.446 56.388C138.648 51.4818 138.847 46.5284 137.979 41.6974C137.111 36.8646 135.071 32.0939 131.429 28.8017C125.074 23.0535 114.357 22.0327 110.771 14.2504C109.432 19.249 105.458 23.0949 101.283 26.1517C97.1071 29.2066 92.5135 31.7888 88.9821 35.5707C85.4507 39.3526 83.0927 44.7843 84.6277 49.7245L100.495 77.9738L139.604 80.6464L138.446 56.388Z" fill="#F4AA76"/>
<path d="M138.446 56.388C138.648 51.4817 138.847 46.5284 137.979 41.6974C137.111 36.8646 135.071 32.0939 131.429 28.8017C125.074 23.0535 114.357 22.0327 110.771 14.2504C109.432 19.249 105.458 23.0949 101.283 26.1517C97.1071 29.2066 92.5135 31.7888 88.9821 35.5707C85.4507 39.3526 83.0927 44.7843 84.6277 49.7245L100.495 77.9738L139.604 80.6464L138.446 56.388Z" stroke="#F4AA76" stroke-width="2" stroke-miterlimit="10" stroke-linecap="round" stroke-linejoin="round"/>
<path d="M102.961 46.7939C103.066 49.6887 102.047 52.0769 100.686 52.1259C99.3239 52.1748 98.1335 49.8695 98.0281 46.9728C97.9226 44.078 98.9415 41.6899 100.303 41.6409C101.665 41.5919 102.855 43.8991 102.961 46.7939Z" fill="#442621" stroke="#442621" stroke-width="2" stroke-miterlimit="10" stroke-linecap="round" stroke-linejoin="round"/>
<path d="M130.027 44.1195C130.133 47.0143 129.114 49.4025 127.752 49.4514C126.391 49.5004 125.2 47.1951 125.095 44.2984C124.989 41.4036 126.008 39.0155 127.37 38.9665C128.732 38.9175 129.922 41.2247 130.027 44.1195Z" fill="#442621" stroke="#442621" stroke-width="2" stroke-miterlimit="10" stroke-linecap="round" stroke-linejoin="round"/>
<path d="M114.849 43.918C114.31 47.9843 114.678 52.1692 115.915 56.081C116.258 57.1659 116.674 58.2733 116.557 59.4053C116.44 60.5372 115.585 61.6936 114.448 61.6917C114.843 61.6635 115.239 61.6333 115.634 61.6051" stroke="#442621" stroke-width="2" stroke-miterlimit="10" stroke-linecap="round" stroke-linejoin="round"/>
<path d="M76.6571 101.882C71.7301 99.0417 67.0912 95.7005 62.8366 91.9243C58.6799 88.2347 54.6815 83.6994 54.1353 78.1678C53.4572 71.3066 58.1997 65.2212 62.6879 59.991C66.724 55.2881 71.4438 50.2538 77.6233 49.7923C82.7876 49.4081 87.5696 52.3764 91.6754 55.533C99.9587 61.8989 107.263 69.5342 113.256 78.0887C118.341 85.3474 123.034 93.7173 125.355 102.272" fill="#FCFCFC"/>
<path d="M76.6571 101.882C71.7301 99.0417 67.0912 95.7005 62.8366 91.9243C58.6799 88.2347 54.6815 83.6994 54.1353 78.1678C53.4572 71.3066 58.1997 65.2212 62.6879 59.991C66.724 55.2881 71.4438 50.2538 77.6233 49.7923C82.7876 49.4081 87.5696 52.3764 91.6754 55.533C99.9587 61.8989 107.263 69.5342 113.256 78.0887C118.341 85.3474 123.034 93.7173 125.355 102.272" stroke="#FCFCFC" stroke-width="2" stroke-miterlimit="10" stroke-linecap="round" stroke-linejoin="round"/>
<path d="M108.206 92.0768C119.045 83.7032 136.938 59.4863 147.777 51.1107C150.526 48.9862 154.15 46.7619 157.226 48.3817C159.789 49.7339 160.456 53.0337 160.84 55.904C161.631 61.8255 162.42 67.7469 163.211 73.6665C163.814 78.1867 164.415 82.818 163.422 87.2685C162.431 91.719 146.47 107.694 142.109 109.024C142.607 109.112 156.139 97.5312 156.636 97.6197" fill="#FCFCFC"/>
<path d="M108.206 92.0768C119.045 83.7032 136.938 59.4863 147.777 51.1107C150.526 48.9862 154.15 46.7619 157.226 48.3817C159.789 49.7339 160.456 53.0337 160.84 55.904C161.631 61.8255 162.42 67.7469 163.211 73.6665C163.814 78.1867 164.415 82.818 163.422 87.2685C162.431 91.719 146.47 107.694 142.109 109.024C142.607 109.112 156.139 97.5312 156.636 97.6197" stroke="#FCFCFC" stroke-width="2" stroke-miterlimit="10" stroke-linecap="round" stroke-linejoin="round"/>
<path d="M52.4403 147.811C36.8099 175.636 32.075 204.257 44.7409 233.551" stroke="#442621" stroke-width="2" stroke-miterlimit="10" stroke-linecap="round" stroke-linejoin="round"/>
<path d="M195.276 181.98C199.081 203.213 195.743 225.662 185.927 244.871" stroke="#442621" stroke-width="2" stroke-miterlimit="10" stroke-linecap="round" stroke-linejoin="round"/>
<path d="M118.461 78.439C118.461 78.439 123.275 82.3037 127.24 92.0353" stroke="#442621" stroke-width="2" stroke-miterlimit="10" stroke-linecap="round" stroke-linejoin="round"/>
<path d="M185.341 177.382H48.6582V282.113H185.341V177.382Z" fill="#CDA349" stroke="#CDA349" stroke-width="2" stroke-miterlimit="10" stroke-linecap="round" stroke-linejoin="round"/>
<path d="M48.6582 197.039V282.113H185.341V269.067C137.418 258.365 83.264 222.831 48.6582 197.039Z" fill="#BA9442" stroke="#BA9442" stroke-width="2" stroke-miterlimit="10" stroke-linecap="round" stroke-linejoin="round"/>
<path d="M127.56 173.615H108.91V282.113H127.56V173.615Z" fill="#E4AD85"/>
<path d="M68.0593 253.796C68.2251 255.099 67.1779 256.209 66.2155 257.103C62.6822 260.38 59.1508 263.658 55.6194 266.935C60.3581 266.221 65.0967 265.507 69.8373 264.793C70.9598 264.624 72.1482 264.462 73.1954 264.899C75.9565 266.048 75.6627 270.103 74.3763 272.803C71.2951 279.271 65.1683 284.208 58.194 285.842C51.2179 287.477 43.5373 285.778 37.904 281.352C36.1223 279.953 34.48 278.199 33.8923 276.009C31.6323 267.613 38.9663 258.407 46.6318 256.868C50.2291 256.143 67.6205 250.331 68.0593 253.796Z" fill="#398451" stroke="#398451" stroke-width="2" stroke-miterlimit="10" stroke-linecap="round" stroke-linejoin="round"/>
<path d="M171.662 272.348C169.306 271.112 166.871 269.852 164.221 269.619C161.571 269.385 158.621 270.434 157.408 272.802C156.292 274.982 156.932 277.749 158.425 279.691C159.919 281.633 162.123 282.891 164.343 283.929C170.14 286.635 176.749 288.176 182.97 286.686C193.811 284.091 200.83 270.091 190.327 262.22C186.972 259.706 184.01 260.055 180.036 260.09C173.994 260.145 168.607 259.032 162.657 258.442C164.102 263.646 167.765 268.601 171.662 272.348Z" fill="#398451" stroke="#398451" stroke-width="2" stroke-miterlimit="10" stroke-linecap="round" stroke-linejoin="round"/>
<path d="M127.767 129.067C129.34 127.218 131.455 125.935 133.355 124.423C135.254 122.91 137.034 120.997 137.473 118.61C137.91 116.222 136.465 113.38 134.056 113.081C130.018 112.578 128.131 118.612 124.17 119.55C125.873 117.156 125.104 113.461 122.725 111.738C120.347 110.014 116.802 110.31 114.559 112.209C112.316 114.107 111.417 117.352 112.086 120.213C112.38 117.158 109.675 114.205 106.609 114.075C103.543 113.945 100.658 116.51 100.266 119.554C99.874 122.598 101.893 125.732 104.773 126.792" fill="#E4AD85"/>
<path d="M127.767 129.067C129.34 127.218 131.455 125.935 133.355 124.423C135.254 122.91 137.034 120.997 137.473 118.61C137.91 116.222 136.465 113.38 134.056 113.081C130.018 112.578 128.131 118.612 124.17 119.55C125.873 117.156 125.104 113.461 122.725 111.738C120.347 110.014 116.802 110.31 114.559 112.209C112.316 114.107 111.417 117.352 112.086 120.213C112.38 117.158 109.675 114.205 106.609 114.075C103.543 113.945 100.658 116.51 100.266 119.554C99.874 122.598 101.893 125.732 104.773 126.792" stroke="#E4AD85" stroke-width="2" stroke-miterlimit="10" stroke-linecap="round" stroke-linejoin="round"/>
<path d="M151.317 125.773H82.6803V173.614H151.317V125.773Z" fill="#E54642" stroke="#E54642" stroke-width="2" stroke-miterlimit="10" stroke-linecap="round" stroke-linejoin="round"/>
<path d="M151.317 169.404C116.425 166.724 93.5382 145.238 82.6803 132.129V173.615H151.317V169.404Z" fill="#D63733" stroke="#D63733" stroke-width="2" stroke-miterlimit="10" stroke-linecap="round" stroke-linejoin="round"/>
<path d="M122.852 122.006H113.001V173.614H122.852V122.006Z" fill="#E4AD85"/>
</svg>
